<mxfile host="app.diagrams.net" agent="Mozilla/5.0 (Windows NT 10.0; Win64; x64) AppleWebKit/537.36 (KHTML, like Gecko) Chrome/140.0.0.0 Safari/537.36" version="28.2.4">
  <diagram name="BÃ i 5" id="G8Rc9XTlgcBAyMVN9hyZ">
    <mxGraphModel grid="1" page="1" gridSize="10" guides="1" tooltips="1" connect="1" arrows="1" fold="1" pageScale="1" pageWidth="827" pageHeight="1169" math="0" shadow="0">
      <root>
        <mxCell id="0" />
        <mxCell id="1" parent="0" />
        <mxCell id="-gzV0EdhQFD0m6XZclZO-16" value="" style="rounded=0;whiteSpace=wrap;html=1;dashed=1;dashPattern=1 4;fillColor=none;strokeWidth=2;" vertex="1" parent="1">
          <mxGeometry x="-1080" y="-830" width="730" height="350" as="geometry" />
        </mxCell>
        <object placeholders="1" c4Name="Member&#xa;" c4Type="" c4Description="Organizer of meeting groups, meetings, member of group. meeting attendee" label="&lt;font style=&quot;font-size: 16px&quot;&gt;&lt;b&gt;%c4Name%&lt;/b&gt;&lt;/font&gt;&lt;div&gt;[%c4Type%]&lt;/div&gt;&lt;br&gt;&lt;div&gt;&lt;font style=&quot;font-size: 11px&quot;&gt;&lt;font color=&quot;#cccccc&quot;&gt;%c4Description%&lt;/font&gt;&lt;/div&gt;" id="csZpmPd-vi0xfsbfclic-5">
          <mxCell style="html=1;fontSize=11;dashed=0;whiteSpace=wrap;fillColor=#083F75;strokeColor=#06315C;fontColor=#ffffff;shape=mxgraph.c4.person2;align=center;metaEdit=1;points=[[0.5,0,0],[1,0.5,0],[1,0.75,0],[0.75,1,0],[0.5,1,0],[0.25,1,0],[0,0.75,0],[0,0.5,0]];resizable=0;" vertex="1" parent="1">
            <mxGeometry x="-1210" y="-1080" width="200" height="180" as="geometry" />
          </mxCell>
        </object>
        <object placeholders="1" c4Name="Administrator" c4Type="" c4Description="Administrator of the system" label="&lt;font style=&quot;font-size: 16px&quot;&gt;&lt;b&gt;%c4Name%&lt;/b&gt;&lt;/font&gt;&lt;div&gt;[%c4Type%]&lt;/div&gt;&lt;br&gt;&lt;div&gt;&lt;font style=&quot;font-size: 11px&quot;&gt;&lt;font color=&quot;#cccccc&quot;&gt;%c4Description%&lt;/font&gt;&lt;/div&gt;" id="csZpmPd-vi0xfsbfclic-6">
          <mxCell style="html=1;fontSize=11;dashed=0;whiteSpace=wrap;fillColor=#083F75;strokeColor=#06315C;fontColor=#ffffff;shape=mxgraph.c4.person2;align=center;metaEdit=1;points=[[0.5,0,0],[1,0.5,0],[1,0.75,0],[0.75,1,0],[0.5,1,0],[0.25,1,0],[0,0.75,0],[0,0.5,0]];resizable=0;" vertex="1" parent="1">
            <mxGeometry x="-970" y="-1080" width="200" height="180" as="geometry" />
          </mxCell>
        </object>
        <object placeholders="1" c4Name="SPA" c4Type="ReactJS" c4Description="GUI for the application" label="&lt;font style=&quot;font-size: 16px&quot;&gt;&lt;b&gt;%c4Name%&lt;/b&gt;&lt;/font&gt;&lt;div&gt;[%c4Type%]&lt;/div&gt;&lt;br&gt;&lt;div&gt;&lt;font style=&quot;font-size: 11px&quot;&gt;&lt;font color=&quot;#cccccc&quot;&gt;%c4Description%&lt;/font&gt;&lt;/div&gt;" id="csZpmPd-vi0xfsbfclic-7">
          <mxCell style="rounded=1;whiteSpace=wrap;html=1;labelBackgroundColor=none;fillColor=#1061B0;fontColor=#ffffff;align=center;arcSize=10;strokeColor=#0D5091;metaEdit=1;resizable=0;points=[[0.25,0,0],[0.5,0,0],[0.75,0,0],[1,0.25,0],[1,0.5,0],[1,0.75,0],[0.75,1,0],[0.5,1,0],[0.25,1,0],[0,0.75,0],[0,0.5,0],[0,0.25,0]];" vertex="1" parent="1">
            <mxGeometry x="-1060" y="-810" width="240" height="120" as="geometry" />
          </mxCell>
        </object>
        <object placeholders="1" c4Name="My Meeting API" c4Type=".NET Core" c4Description="Backend" label="&lt;font style=&quot;font-size: 16px&quot;&gt;&lt;b&gt;%c4Name%&lt;/b&gt;&lt;/font&gt;&lt;div&gt;[%c4Type%]&lt;/div&gt;&lt;br&gt;&lt;div&gt;&lt;font style=&quot;font-size: 11px&quot;&gt;&lt;font color=&quot;#cccccc&quot;&gt;%c4Description%&lt;/font&gt;&lt;/div&gt;" id="csZpmPd-vi0xfsbfclic-8">
          <mxCell style="rounded=1;whiteSpace=wrap;html=1;labelBackgroundColor=none;fillColor=#1061B0;fontColor=#ffffff;align=center;arcSize=10;strokeColor=#0D5091;metaEdit=1;resizable=0;points=[[0.25,0,0],[0.5,0,0],[0.75,0,0],[1,0.25,0],[1,0.5,0],[1,0.75,0],[0.75,1,0],[0.5,1,0],[0.25,1,0],[0,0.75,0],[0,0.5,0],[0,0.25,0]];" vertex="1" parent="1">
            <mxGeometry x="-1060" y="-620" width="240" height="120" as="geometry" />
          </mxCell>
        </object>
        <object placeholders="1" c4Name="Database " c4Type="Container" c4Technology="Mycrosoft SQL" c4Description="Data about meeting groups, members, meetings etc" label="&lt;font style=&quot;font-size: 16px&quot;&gt;&lt;b&gt;%c4Name%&lt;/b&gt;&lt;/font&gt;&lt;div&gt;[%c4Type%:&amp;nbsp;%c4Technology%]&lt;/div&gt;&lt;br&gt;&lt;div&gt;&lt;font style=&quot;font-size: 11px&quot;&gt;&lt;font color=&quot;#E6E6E6&quot;&gt;%c4Description%&lt;/font&gt;&lt;/div&gt;" id="csZpmPd-vi0xfsbfclic-9">
          <mxCell style="shape=cylinder3;size=15;whiteSpace=wrap;html=1;boundedLbl=1;rounded=0;labelBackgroundColor=none;fillColor=#23A2D9;fontSize=12;fontColor=#ffffff;align=center;strokeColor=#0E7DAD;metaEdit=1;points=[[0.5,0,0],[1,0.25,0],[1,0.5,0],[1,0.75,0],[0.5,1,0],[0,0.75,0],[0,0.5,0],[0,0.25,0]];resizable=0;" vertex="1" parent="1">
            <mxGeometry x="-650" y="-620" width="240" height="120" as="geometry" />
          </mxCell>
        </object>
        <object placeholders="1" c4Name="Email system " c4Type="" c4Description="3rd  party SMTP server" label="&lt;font style=&quot;font-size: 16px&quot;&gt;&lt;b&gt;%c4Name%&lt;/b&gt;&lt;/font&gt;&lt;div&gt;[%c4Type%]&lt;/div&gt;&lt;br&gt;&lt;div&gt;&lt;font style=&quot;font-size: 11px&quot;&gt;&lt;font color=&quot;#cccccc&quot;&gt;%c4Description%&lt;/font&gt;&lt;/div&gt;" id="csZpmPd-vi0xfsbfclic-10">
          <mxCell style="rounded=1;whiteSpace=wrap;html=1;labelBackgroundColor=none;fillColor=#8C8496;fontColor=#ffffff;align=center;arcSize=10;strokeColor=#736782;metaEdit=1;resizable=0;points=[[0.25,0,0],[0.5,0,0],[0.75,0,0],[1,0.25,0],[1,0.5,0],[1,0.75,0],[0.75,1,0],[0.5,1,0],[0.25,1,0],[0,0.75,0],[0,0.5,0],[0,0.25,0]];" vertex="1" parent="1">
            <mxGeometry x="-1410" y="-620" width="240" height="120" as="geometry" />
          </mxCell>
        </object>
        <object placeholders="1" c4Name="Payment Gateway" c4Type="" c4Description="3rd party payment service" label="&lt;font style=&quot;font-size: 16px&quot;&gt;&lt;b&gt;%c4Name%&lt;/b&gt;&lt;/font&gt;&lt;div&gt;[%c4Type%]&lt;/div&gt;&lt;br&gt;&lt;div&gt;&lt;font style=&quot;font-size: 11px&quot;&gt;&lt;font color=&quot;#cccccc&quot;&gt;%c4Description%&lt;/font&gt;&lt;/div&gt;" id="csZpmPd-vi0xfsbfclic-11">
          <mxCell style="rounded=1;whiteSpace=wrap;html=1;labelBackgroundColor=none;fillColor=#8C8496;fontColor=#ffffff;align=center;arcSize=10;strokeColor=#736782;metaEdit=1;resizable=0;points=[[0.25,0,0],[0.5,0,0],[0.75,0,0],[1,0.25,0],[1,0.5,0],[1,0.75,0],[0.75,1,0],[0.5,1,0],[0.25,1,0],[0,0.75,0],[0,0.5,0],[0,0.25,0]];" vertex="1" parent="1">
            <mxGeometry x="-1230" y="-410" width="240" height="120" as="geometry" />
          </mxCell>
        </object>
        <mxCell id="csZpmPd-vi0xfsbfclic-12" value="Legend" style="shape=table;startSize=30;container=1;collapsible=0;childLayout=tableLayout;fontSize=16;align=left;verticalAlign=top;fillColor=none;strokeColor=none;fontColor=light-dark(#000000,#ABABAB);fontStyle=1;spacingLeft=6;spacing=0;resizable=0;" vertex="1" parent="1">
          <mxGeometry x="-580" y="-370" width="180" height="210" as="geometry" />
        </mxCell>
        <mxCell id="csZpmPd-vi0xfsbfclic-13" value="" style="shape=tableRow;horizontal=0;startSize=0;swimlaneHead=0;swimlaneBody=0;strokeColor=inherit;top=0;left=0;bottom=0;right=0;collapsible=0;dropTarget=0;fillColor=none;points=[[0,0.5],[1,0.5]];portConstraint=eastwest;fontSize=12;" vertex="1" parent="csZpmPd-vi0xfsbfclic-12">
          <mxGeometry y="30" width="180" height="30" as="geometry" />
        </mxCell>
        <mxCell id="csZpmPd-vi0xfsbfclic-14" value="Person" style="shape=partialRectangle;html=1;whiteSpace=wrap;connectable=0;strokeColor=inherit;overflow=hidden;fillColor=#1E4074;top=0;left=0;bottom=0;right=0;pointerEvents=1;fontSize=12;align=left;fontColor=#FFFFFF;gradientColor=none;spacingLeft=10;spacingRight=4;" vertex="1" parent="csZpmPd-vi0xfsbfclic-13">
          <mxGeometry width="180" height="30" as="geometry">
            <mxRectangle width="180" height="30" as="alternateBounds" />
          </mxGeometry>
        </mxCell>
        <mxCell id="csZpmPd-vi0xfsbfclic-15" value="" style="shape=tableRow;horizontal=0;startSize=0;swimlaneHead=0;swimlaneBody=0;strokeColor=inherit;top=0;left=0;bottom=0;right=0;collapsible=0;dropTarget=0;fillColor=none;points=[[0,0.5],[1,0.5]];portConstraint=eastwest;fontSize=12;" vertex="1" parent="csZpmPd-vi0xfsbfclic-12">
          <mxGeometry y="60" width="180" height="30" as="geometry" />
        </mxCell>
        <mxCell id="csZpmPd-vi0xfsbfclic-16" value="System" style="shape=partialRectangle;html=1;whiteSpace=wrap;connectable=0;strokeColor=inherit;overflow=hidden;fillColor=#3162AF;top=0;left=0;bottom=0;right=0;pointerEvents=1;fontSize=12;align=left;fontColor=#FFFFFF;gradientColor=none;spacingLeft=10;spacingRight=4;" vertex="1" parent="csZpmPd-vi0xfsbfclic-15">
          <mxGeometry width="180" height="30" as="geometry">
            <mxRectangle width="180" height="30" as="alternateBounds" />
          </mxGeometry>
        </mxCell>
        <mxCell id="csZpmPd-vi0xfsbfclic-17" value="" style="shape=tableRow;horizontal=0;startSize=0;swimlaneHead=0;swimlaneBody=0;strokeColor=inherit;top=0;left=0;bottom=0;right=0;collapsible=0;dropTarget=0;fillColor=none;points=[[0,0.5],[1,0.5]];portConstraint=eastwest;fontSize=12;" vertex="1" parent="csZpmPd-vi0xfsbfclic-12">
          <mxGeometry y="90" width="180" height="30" as="geometry" />
        </mxCell>
        <mxCell id="csZpmPd-vi0xfsbfclic-18" value="Container" style="shape=partialRectangle;html=1;whiteSpace=wrap;connectable=0;strokeColor=inherit;overflow=hidden;fillColor=#52a2d8;top=0;left=0;bottom=0;right=0;pointerEvents=1;fontSize=12;align=left;fontColor=#FFFFFF;gradientColor=none;spacingLeft=10;spacingRight=4;" vertex="1" parent="csZpmPd-vi0xfsbfclic-17">
          <mxGeometry width="180" height="30" as="geometry">
            <mxRectangle width="180" height="30" as="alternateBounds" />
          </mxGeometry>
        </mxCell>
        <mxCell id="csZpmPd-vi0xfsbfclic-21" value="" style="shape=tableRow;horizontal=0;startSize=0;swimlaneHead=0;swimlaneBody=0;strokeColor=inherit;top=0;left=0;bottom=0;right=0;collapsible=0;dropTarget=0;fillColor=none;points=[[0,0.5],[1,0.5]];portConstraint=eastwest;fontSize=12;" vertex="1" parent="csZpmPd-vi0xfsbfclic-12">
          <mxGeometry y="120" width="180" height="30" as="geometry" />
        </mxCell>
        <mxCell id="csZpmPd-vi0xfsbfclic-22" value="External Person" style="shape=partialRectangle;html=1;whiteSpace=wrap;connectable=0;strokeColor=inherit;overflow=hidden;fillColor=#6b6477;top=0;left=0;bottom=0;right=0;pointerEvents=1;fontSize=12;align=left;fontColor=#FFFFFF;gradientColor=none;spacingLeft=10;spacingRight=4;" vertex="1" parent="csZpmPd-vi0xfsbfclic-21">
          <mxGeometry width="180" height="30" as="geometry">
            <mxRectangle width="180" height="30" as="alternateBounds" />
          </mxGeometry>
        </mxCell>
        <mxCell id="csZpmPd-vi0xfsbfclic-23" value="" style="shape=tableRow;horizontal=0;startSize=0;swimlaneHead=0;swimlaneBody=0;strokeColor=inherit;top=0;left=0;bottom=0;right=0;collapsible=0;dropTarget=0;fillColor=none;points=[[0,0.5],[1,0.5]];portConstraint=eastwest;fontSize=12;" vertex="1" parent="csZpmPd-vi0xfsbfclic-12">
          <mxGeometry y="150" width="180" height="30" as="geometry" />
        </mxCell>
        <mxCell id="csZpmPd-vi0xfsbfclic-24" value="External System" style="shape=partialRectangle;html=1;whiteSpace=wrap;connectable=0;strokeColor=inherit;overflow=hidden;fillColor=#8b8496;top=0;left=0;bottom=0;right=0;pointerEvents=1;fontSize=12;align=left;fontColor=#FFFFFF;gradientColor=none;spacingLeft=10;spacingRight=4;" vertex="1" parent="csZpmPd-vi0xfsbfclic-23">
          <mxGeometry width="180" height="30" as="geometry">
            <mxRectangle width="180" height="30" as="alternateBounds" />
          </mxGeometry>
        </mxCell>
        <mxCell id="-gzV0EdhQFD0m6XZclZO-19" value="" style="shape=tableRow;horizontal=0;startSize=0;swimlaneHead=0;swimlaneBody=0;strokeColor=inherit;top=0;left=0;bottom=0;right=0;collapsible=0;dropTarget=0;fillColor=none;points=[[0,0.5],[1,0.5]];portConstraint=eastwest;fontSize=12;" vertex="1" parent="csZpmPd-vi0xfsbfclic-12">
          <mxGeometry y="180" width="180" height="30" as="geometry" />
        </mxCell>
        <mxCell id="-gzV0EdhQFD0m6XZclZO-20" value="&lt;font style=&quot;color: light-dark(rgb(247, 247, 247), rgb(237, 237, 237));&quot;&gt;External Container&lt;/font&gt;" style="shape=partialRectangle;html=1;whiteSpace=wrap;connectable=0;strokeColor=#36393d;overflow=hidden;fillColor=light-dark(#cfc9c9, #202020);top=0;left=0;bottom=0;right=0;pointerEvents=1;fontSize=12;align=left;spacingLeft=10;spacingRight=4;" vertex="1" parent="-gzV0EdhQFD0m6XZclZO-19">
          <mxGeometry width="180" height="30" as="geometry">
            <mxRectangle width="180" height="30" as="alternateBounds" />
          </mxGeometry>
        </mxCell>
        <mxCell id="-gzV0EdhQFD0m6XZclZO-1" value="" style="endArrow=classic;html=1;rounded=0;exitX=0.5;exitY=1;exitDx=0;exitDy=0;exitPerimeter=0;entryX=0.75;entryY=0;entryDx=0;entryDy=0;entryPerimeter=0;" edge="1" parent="1" source="csZpmPd-vi0xfsbfclic-6" target="csZpmPd-vi0xfsbfclic-7">
          <mxGeometry width="50" height="50" relative="1" as="geometry">
            <mxPoint x="-1320" y="-870" as="sourcePoint" />
            <mxPoint x="-1270" y="-920" as="targetPoint" />
          </mxGeometry>
        </mxCell>
        <mxCell id="-gzV0EdhQFD0m6XZclZO-2" value="" style="endArrow=classic;html=1;rounded=0;exitX=0.5;exitY=1;exitDx=0;exitDy=0;exitPerimeter=0;entryX=0.25;entryY=0;entryDx=0;entryDy=0;entryPerimeter=0;" edge="1" parent="1" source="csZpmPd-vi0xfsbfclic-5" target="csZpmPd-vi0xfsbfclic-7">
          <mxGeometry width="50" height="50" relative="1" as="geometry">
            <mxPoint x="-1270" y="-790" as="sourcePoint" />
            <mxPoint x="-1220" y="-840" as="targetPoint" />
          </mxGeometry>
        </mxCell>
        <mxCell id="-gzV0EdhQFD0m6XZclZO-3" value="" style="endArrow=classic;html=1;rounded=0;exitX=0.5;exitY=1;exitDx=0;exitDy=0;exitPerimeter=0;entryX=0.5;entryY=0;entryDx=0;entryDy=0;entryPerimeter=0;" edge="1" parent="1" source="csZpmPd-vi0xfsbfclic-5" target="csZpmPd-vi0xfsbfclic-11">
          <mxGeometry width="50" height="50" relative="1" as="geometry">
            <mxPoint x="-1270" y="-740" as="sourcePoint" />
            <mxPoint x="-1220" y="-790" as="targetPoint" />
          </mxGeometry>
        </mxCell>
        <mxCell id="-gzV0EdhQFD0m6XZclZO-4" value="" style="endArrow=classic;html=1;rounded=0;exitX=0.5;exitY=1;exitDx=0;exitDy=0;exitPerimeter=0;entryX=0.5;entryY=0;entryDx=0;entryDy=0;entryPerimeter=0;" edge="1" parent="1" source="csZpmPd-vi0xfsbfclic-7" target="csZpmPd-vi0xfsbfclic-8">
          <mxGeometry width="50" height="50" relative="1" as="geometry">
            <mxPoint x="-1040" y="-550" as="sourcePoint" />
            <mxPoint x="-990" y="-600" as="targetPoint" />
          </mxGeometry>
        </mxCell>
        <mxCell id="-gzV0EdhQFD0m6XZclZO-5" value="" style="endArrow=classic;html=1;rounded=0;exitX=0;exitY=0.5;exitDx=0;exitDy=0;exitPerimeter=0;entryX=1;entryY=0.5;entryDx=0;entryDy=0;entryPerimeter=0;" edge="1" parent="1" source="csZpmPd-vi0xfsbfclic-8" target="csZpmPd-vi0xfsbfclic-10">
          <mxGeometry width="50" height="50" relative="1" as="geometry">
            <mxPoint x="-1520" y="-310" as="sourcePoint" />
            <mxPoint x="-1470" y="-360" as="targetPoint" />
          </mxGeometry>
        </mxCell>
        <mxCell id="-gzV0EdhQFD0m6XZclZO-6" value="" style="endArrow=classic;html=1;rounded=0;exitX=1;exitY=0.5;exitDx=0;exitDy=0;exitPerimeter=0;entryX=0;entryY=0.5;entryDx=0;entryDy=0;entryPerimeter=0;" edge="1" parent="1" source="csZpmPd-vi0xfsbfclic-8" target="csZpmPd-vi0xfsbfclic-9">
          <mxGeometry width="50" height="50" relative="1" as="geometry">
            <mxPoint x="-1320" y="-320" as="sourcePoint" />
            <mxPoint x="-1270" y="-370" as="targetPoint" />
          </mxGeometry>
        </mxCell>
        <mxCell id="-gzV0EdhQFD0m6XZclZO-7" value="" style="endArrow=classic;html=1;rounded=0;exitX=0.5;exitY=1;exitDx=0;exitDy=0;exitPerimeter=0;entryX=0.75;entryY=0;entryDx=0;entryDy=0;entryPerimeter=0;" edge="1" parent="1" source="csZpmPd-vi0xfsbfclic-8" target="csZpmPd-vi0xfsbfclic-11">
          <mxGeometry width="50" height="50" relative="1" as="geometry">
            <mxPoint x="-800" y="-320" as="sourcePoint" />
            <mxPoint x="-750" y="-370" as="targetPoint" />
          </mxGeometry>
        </mxCell>
        <mxCell id="-gzV0EdhQFD0m6XZclZO-9" value="&lt;b&gt;Uses&lt;/b&gt;&lt;div&gt;[HTTP]&lt;/div&gt;" style="text;html=1;align=center;verticalAlign=middle;resizable=0;points=[];autosize=1;strokeColor=none;fillColor=none;fontSize=12;" vertex="1" parent="1">
          <mxGeometry x="-880" y="-877" width="60" height="40" as="geometry" />
        </mxCell>
        <mxCell id="-gzV0EdhQFD0m6XZclZO-10" value="&lt;b&gt;Uses&lt;/b&gt;&lt;div&gt;[HTTP]&lt;/div&gt;" style="text;html=1;align=center;verticalAlign=middle;resizable=0;points=[];autosize=1;strokeColor=none;fillColor=none;fontSize=12;" vertex="1" parent="1">
          <mxGeometry x="-1050" y="-877" width="60" height="40" as="geometry" />
        </mxCell>
        <mxCell id="-gzV0EdhQFD0m6XZclZO-11" value="&lt;b&gt;Uses&lt;/b&gt;&lt;div&gt;[HTTP]&lt;/div&gt;" style="text;html=1;align=center;verticalAlign=middle;resizable=0;points=[];autosize=1;strokeColor=none;fillColor=none;fontSize=12;" vertex="1" parent="1">
          <mxGeometry x="-940" y="-680" width="60" height="40" as="geometry" />
        </mxCell>
        <mxCell id="-gzV0EdhQFD0m6XZclZO-12" value="&lt;b&gt;Make payment via&lt;/b&gt;&lt;div&gt;[HTTP]&lt;/div&gt;" style="text;html=1;align=center;verticalAlign=middle;resizable=0;points=[];autosize=1;strokeColor=none;fillColor=none;" vertex="1" parent="1">
          <mxGeometry x="-1230" y="-770" width="130" height="40" as="geometry" />
        </mxCell>
        <mxCell id="-gzV0EdhQFD0m6XZclZO-13" value="&lt;b&gt;Sends email using&lt;/b&gt;&amp;nbsp;&lt;div&gt;[SMTP]&lt;/div&gt;" style="text;html=1;align=center;verticalAlign=middle;resizable=0;points=[];autosize=1;strokeColor=none;fillColor=none;" vertex="1" parent="1">
          <mxGeometry x="-1175" y="-600" width="130" height="40" as="geometry" />
        </mxCell>
        <mxCell id="-gzV0EdhQFD0m6XZclZO-14" value="&lt;b&gt;Reads/Writes&lt;/b&gt;&lt;div&gt;[SQL]&lt;/div&gt;" style="text;html=1;align=center;verticalAlign=middle;resizable=0;points=[];autosize=1;strokeColor=none;fillColor=none;" vertex="1" parent="1">
          <mxGeometry x="-790" y="-597" width="100" height="40" as="geometry" />
        </mxCell>
        <mxCell id="-gzV0EdhQFD0m6XZclZO-15" value="&lt;b&gt;Delegate the payment&lt;/b&gt;&lt;div&gt;[HTTP]&lt;/div&gt;" style="text;html=1;align=center;verticalAlign=middle;resizable=0;points=[];autosize=1;strokeColor=none;fillColor=none;" vertex="1" parent="1">
          <mxGeometry x="-990" y="-467" width="150" height="40" as="geometry" />
        </mxCell>
        <mxCell id="-gzV0EdhQFD0m6XZclZO-17" value="&lt;b&gt;My Meetings Sysyem&lt;/b&gt;&lt;div&gt;[System]&lt;/div&gt;" style="text;html=1;align=center;verticalAlign=middle;resizable=0;points=[];autosize=1;strokeColor=none;fillColor=none;" vertex="1" parent="1">
          <mxGeometry x="-730" y="-830" width="140" height="40" as="geometry" />
        </mxCell>
      </root>
    </mxGraphModel>
  </diagram>
</mxfile>
